<?xml version="1.0" encoding="utf-8"?>
<!-- Generator: Adobe Illustrator 28.2.0, SVG Export Plug-In . SVG Version: 6.00 Build 0)  -->
<svg version="1.1" id="Layer_1" xmlns="http://www.w3.org/2000/svg" xmlns:xlink="http://www.w3.org/1999/xlink" x="0px" y="0px"
	 viewBox="0 0 885 210" style="enable-background:new 0 0 885 210;" xml:space="preserve">
<style type="text/css">
	.st0{fill:#1A1A1A;}
</style>
<g>
	<g>
		<path class="st0" d="M274.33,87.9c13.32,0,17.64,7.44,17.64,7.44h0.24c0,0-0.12-1.56-0.12-3.6v-10.8c0-1.8-0.96-2.64-2.64-2.64
			h-4.8V65.34h14.52c5.64,0,8.16,2.52,8.16,8.16v61.56c0,1.68,0.96,2.64,2.64,2.64h4.68v12.84h-14.04c-5.52,0-7.56-2.64-7.56-6.24
			c0-1.32,0-2.28,0-2.28h-0.24c0,0-5.04,9.96-19.08,9.96c-16.56,0-27.24-13.08-27.24-32.04C246.49,100.5,258.13,87.9,274.33,87.9z
			 M292.45,119.82c0-9.48-4.92-18.84-15.12-18.84c-8.4,0-15.36,6.84-15.36,18.96c0,11.64,6.12,19.2,15.12,19.2
			C285.01,139.14,292.45,133.38,292.45,119.82z"/>
		<path class="st0" d="M353.41,87.9c17.52,0,27.12,12.84,27.12,29.04c0,1.8-0.36,5.64-0.36,5.64h-42.24
			c1.2,10.8,9.12,16.44,18.36,16.44c9.84,0,17.16-6.84,17.16-6.84l6.36,10.56c0,0-9.36,9.24-24.6,9.24
			c-20.28,0-32.88-14.64-32.88-32.04C322.33,101.1,335.05,87.9,353.41,87.9z M364.93,112.02c-0.24-7.32-5.28-12.36-11.52-12.36
			c-7.8,0-13.32,4.68-15,12.36H364.93z"/>
		<path class="st0" d="M392.65,104.46c-0.6-1.56-1.68-2.16-3.36-2.16h-1.32V89.34h8.76c5.04,0,7.44,1.56,9,5.76l11.52,32.16
			c1.32,3.6,2.28,8.76,2.28,8.76h0.24c0,0,0.96-5.16,2.16-8.76l11.52-32.16c1.56-4.2,4.08-5.76,9-5.76h8.16v12.96h-1.44
			c-1.68,0-2.76,0.6-3.36,2.16l-17.52,46.08h-18.12L392.65,104.46z"/>
		<path class="st0" d="M462.73,80.94c0-1.8-0.96-2.64-2.64-2.64h-4.8V65.34h14.52c5.64,0,8.16,2.52,8.16,8.16v61.56
			c0,1.68,0.96,2.64,2.64,2.64h4.68v12.84h-14.4c-5.76,0-8.16-2.4-8.16-8.16V80.94z"/>
		<path class="st0" d="M526.57,87.9c18.72,0,33.6,13.32,33.6,32.04c0,18.84-14.88,32.04-33.6,32.04c-18.6,0-33.48-13.2-33.48-32.04
			C493.09,101.22,507.97,87.9,526.57,87.9z M526.57,139.02c9.96,0,18.24-7.68,18.24-19.08c0-11.28-8.28-19.08-18.24-19.08
			c-9.84,0-18.12,7.8-18.12,19.08C508.45,131.34,516.73,139.02,526.57,139.02z"/>
		<path class="st0" d="M570.25,104.46c-0.6-1.8-1.56-2.16-3.36-2.16h-1.68V89.34h10.44c5.04,0,7.44,1.56,8.64,6.24l9,33.96
			c0.84,3.24,1.2,6.48,1.2,6.48h0.24c0,0,0.48-3.24,1.44-6.48l11.28-39.96h13.44l11.4,39.96c0.96,3.24,1.32,6.48,1.32,6.48h0.24
			c0,0,0.36-3.24,1.2-6.48l8.88-33.96c1.2-4.68,3.6-6.24,8.64-6.24H663v12.96h-1.68c-1.8,0-2.64,0.36-3.36,2.16l-14.64,46.08h-17.16
			l-10.44-34.92c-0.96-3.24-1.44-6.6-1.44-6.6h-0.24c0,0-0.6,3.36-1.56,6.6l-10.32,34.92h-17.28L570.25,104.46z"/>
		<path class="st0" d="M675.37,104.94c0-1.8-0.96-2.64-2.64-2.64h-4.8V89.34h13.56c5.64,0,7.68,2.52,7.68,5.88c0,1.44,0,2.4,0,2.4
			h0.24c0,0,5.16-9.72,19.44-9.72c16.56,0,27.24,13.08,27.24,32.04c0,19.44-12,32.04-28.08,32.04c-12.12,0-17.52-8.04-17.52-8.04
			h-0.24c0,0,0.24,2.16,0.24,5.28v25.32h-15.12V104.94z M705.24,139.14c8.4,0,15.48-6.84,15.48-18.96c0-11.64-6.24-19.2-15.24-19.2
			c-7.92,0-15.36,5.76-15.36,19.32C690.12,129.78,695.16,139.14,705.24,139.14z"/>
		<path class="st0" d="M776.04,87.9c17.52,0,27.12,12.84,27.12,29.04c0,1.8-0.36,5.64-0.36,5.64h-42.24
			c1.2,10.8,9.12,16.44,18.36,16.44c9.84,0,17.16-6.84,17.16-6.84l6.36,10.56c0,0-9.36,9.24-24.6,9.24
			c-20.28,0-32.88-14.64-32.88-32.04C744.96,101.1,757.68,87.9,776.04,87.9z M787.56,112.02c-0.24-7.32-5.28-12.36-11.52-12.36
			c-7.8,0-13.32,4.68-15,12.36H787.56z"/>
		<path class="st0" d="M819.12,104.94c0-1.8-0.96-2.64-2.64-2.64h-4.8V89.34h13.92c5.4,0,8.16,2.28,8.16,7.44v3.6
			c0,2.28-0.24,3.84-0.24,3.84h0.24c2.76-8.76,10.08-15.72,19.44-15.72c1.32,0,2.76,0.24,2.76,0.24v15c0,0-1.56-0.24-3.72-0.24
			c-6.48,0-13.92,3.72-16.68,12.84c-0.84,3-1.32,6.36-1.32,9.96v24.24h-15.12V104.94z"/>
	</g>
	<g>
		<g>
			<path class="st0" d="M113.96,131.51c0.09,1.2-0.04,2.64-0.62,3.65c-4.32,7.47-9.41,14.29-16.82,19.08
				c-2.8,1.81-5.8,2.49-9.04,2.37c-3.9-0.14-6.54-2.18-8.16-5.61c-2.74-5.78-2.8-11.79-1.36-17.89c2.11-8.96,6.05-16.84,13.67-22.44
				c5.86-4.3,12.23-4.82,18.96-2.38c1.57,0.57,2.5,1.39,2.25,3.31c-0.22,1.72-0.05,3.48-0.05,5.23c-0.07,0.01-0.15,0.01-0.22,0.02
				C113.05,121.74,113.59,126.62,113.96,131.51z"/>
		</g>
		<g>
			<path class="st0" d="M127.53,110.43c-1.18,2.41-2.38,4.82-3.58,7.22c-0.05,0.11-0.27,0.13-0.8,0.34
				c-0.1-1.57-0.37-3.03-0.26-4.46c0.69-9.08,1.2-18.18,2.28-27.21c0.94-7.86,2.4-15.69,5.64-23c1.01-2.26,2.45-4.49,4.2-6.22
				c2.61-2.57,5.63-1.72,6.01,1.88c0.45,4.35,0.38,8.87-0.31,13.18C138.56,85.65,133.54,98.23,127.53,110.43z"/>
		</g>
		<g>
			<g>
				<path class="st0" d="M139.22,11.72c-13.81-1.34-27.53,0.58-40.58,4.52c-14.62,4.49-24.58,9.17-37.53,18.53
					c-2.58,1.9-3.95,2.51-6.68,5.19c-2.63,1.78-4.58,3.7-6.09,5.19c-4.86,4.68-10.03,10.53-14.21,16.91
					c-3.89,4.91-7.96,14.14-10.08,19.37c-8.61,22.09-4.67,48.7,6.91,70.02c17.14,30.33,48.16,48.94,83.6,49.26
					c58.3,0.1,95.97-36.48,95.46-95.12C210.28,58.88,191.29,15.78,139.22,11.72z M163.52,140.84c-1.95,8.25-10.05,21.54-20.76,24.75
					c-9.94,2.99-19.37-1.73-23.53-11.76c-0.82-1.96-1.5-3.98-2.42-6.44c-2.49,3.03-4.56,5.82-6.9,8.36
					c-5.63,6.09-12.11,10.53-20.8,11.18c-10.34,0.78-18.88-5.3-21.85-15.55c-2.67-9.22-1.38-18.1,1.85-26.77
					c2.93-7.88,7.16-15.06,13.8-20.48c8.74-7.14,18.31-9.88,29.19-5.21c0.28,0.12,0.59,0.17,1.21,0.34c0.2-1.14,0.47-2.18,0.54-3.23
					c0.83-12.4,2.99-24.56,7.81-36.06c1.58-3.79,4.05-7.38,6.79-10.47c3.78-4.25,8.93-5.5,14.37-3.7c5.34,1.76,7.58,6.22,8.48,11.41
					c1.17,6.76,0.15,13.46-1.22,20.05c-4.05,19.49-12.63,37.13-22.56,54.17c-1.77,3.04-2.56,5.94-1.41,9.2
					c1.33,3.79,2.45,7.74,4.4,11.2c2.77,4.93,7.84,5.67,12.41,2.28c4.26-3.16,6.9-7.58,9.18-12.25c0.83-1.7,1.6-3.47,2.72-4.97
					c1.42-1.9,3.76-2.28,5.77-1.32C162.45,136.45,163.99,138.87,163.52,140.84z"/>
			</g>
		</g>
	</g>
</g>
</svg>
