<?xml version="1.0" encoding="utf-8"?>
<!-- Generator: Adobe Illustrator 28.2.0, SVG Export Plug-In . SVG Version: 6.00 Build 0)  -->
<svg version="1.1" id="Layer_1" xmlns="http://www.w3.org/2000/svg" xmlns:xlink="http://www.w3.org/1999/xlink" x="0px" y="0px"
	 viewBox="0 0 624 210" style="enable-background:new 0 0 624 210;" xml:space="preserve">
<style type="text/css">
	.st0{fill:#1A1A1A;}
</style>
<g>
	<g>
		<path class="st0" d="M290.89,95.49l-10.26-77.67h19.38l4.79,54.69h1.25l4.56-54.69h19.04l-10.83,77.67H290.89z"/>
		<path class="st0" d="M340.59,95.49V17.83h38.19v16.42h-20.29v13.65h19.95v15.7h-19.95v14.67h20.18v17.24H340.59z"/>
		<path class="st0" d="M436.13,65.74c0.23,2.46,0.34,4.82,0.34,6.98c0,16.52-2.96,24.11-22.23,24.11c-11.4,0-16.76-1.64-19.72-6.36
			c-2.96-4.51-4.22-10.46-4.22-34.47s1.25-28.62,4.22-33.34c2.96-4.62,8.32-6.16,19.15-6.16c19.38,0,22.57,6.36,22.57,22.88
			c0,1.95-0.11,4.31-0.23,6.87h-16.76c0-8.21-0.34-10.46-0.8-11.9c-0.34-1.33-1.82-1.95-4.79-1.95c-2.85,0-3.99,0.62-4.45,1.95
			c-0.8,2.05-1.14,4.62-1.14,21.44c0,17.13,0.34,19.6,1.14,21.85c0.46,1.33,1.6,1.85,5.02,1.85c2.39,0,3.65-0.51,4.1-1.74
			c1.14-2.87,1.25-5.64,1.25-12H436.13z"/>
		<path class="st0" d="M458.93,95.49V34.24h-13.57V17.83h45.03v16.42h-13.57v61.25H458.93z"/>
		<path class="st0" d="M522.31,96.83c-11.06,0-16.19-1.54-19.15-6.36c-2.96-4.72-4.22-9.44-4.22-33.86s1.25-28.93,4.22-33.75
			c2.96-4.72,8.09-6.36,19.15-6.36c10.94,0,16.07,1.64,19.04,6.36c2.96,4.82,4.22,9.34,4.22,33.75s-1.25,29.14-4.22,33.86
			C538.38,95.29,533.25,96.83,522.31,96.83z M527.78,56.2c0-17.13-0.34-19.9-1.03-21.85c-0.57-1.33-1.6-1.95-4.45-1.95
			c-2.85,0-3.99,0.62-4.45,1.95c-0.8,1.95-1.14,4.72-1.14,21.85c0,16.62,0.34,19.39,1.14,21.44c0.46,1.33,1.6,1.85,4.45,1.85
			c2.85,0,3.88-0.51,4.45-1.85C527.44,75.59,527.78,72.82,527.78,56.2z"/>
		<path class="st0" d="M585.92,95.49c-0.91-2.57-1.25-4.1-3.53-22.06c-0.8-7.18-1.82-8.21-4.1-8.21h-2.74v30.27h-17.9V17.83h26.11
			c15.5,0,19.49,5.95,19.49,20.93c0,16.01-2.51,17.13-7.41,19.7v0.62c0.91,0.72,1.94,1.33,2.74,3.18c1.25,2.46,2.51,7.08,3.76,16.11
			c1.71,12.62,1.82,14.36,2.62,16.62v0.51H585.92z M580.56,50.76c3.31,0,4.56-2.05,4.56-9.23c0-6.16-1.48-7.7-5.02-7.7h-4.56v16.93
			H580.56z"/>
	</g>
	<g>
		<path class="st0" d="M293.89,192v-77.67h25.88c15.39,0,19.49,6.77,19.49,26.68c0,20.31-4.1,27.6-19.49,27.6h-7.98V192H293.89z
			 M316.58,152.61c3.31,0,4.56-2.67,4.56-12c0-8.21-1.48-10.05-5.02-10.05h-4.33v22.06H316.58z"/>
		<path class="st0" d="M372.89,193.34c-11.06,0-16.19-1.54-19.15-6.36c-2.96-4.72-4.22-9.44-4.22-33.86
			c0-24.42,1.25-28.93,4.22-33.76c2.96-4.72,8.09-6.36,19.15-6.36c10.94,0,16.07,1.64,19.04,6.36c2.96,4.82,4.22,9.34,4.22,33.76
			c0,24.42-1.25,29.14-4.22,33.86C388.97,191.8,383.84,193.34,372.89,193.34z M378.37,152.71c0-17.13-0.34-19.9-1.03-21.85
			c-0.57-1.33-1.6-1.95-4.45-1.95c-2.85,0-3.99,0.62-4.45,1.95c-0.8,1.95-1.14,4.72-1.14,21.85c0,16.62,0.34,19.39,1.14,21.44
			c0.46,1.33,1.6,1.85,4.45,1.85c2.85,0,3.88-0.51,4.45-1.85C378.02,172.1,378.37,169.33,378.37,152.71z"/>
		<path class="st0" d="M410.51,168.71l-2.28-57.56h19.61l-2.05,57.56H410.51z M409.15,192v-15.49h17.9V192H409.15z"/>
		<path class="st0" d="M478.68,192l-20.41-41.65h-0.68V192h-16.3v-77.67h17.56l12.08,26.98h0.68v-26.98h16.42V192H478.68z"/>
		<path class="st0" d="M512.43,192v-61.25h-13.57v-16.42h45.03v16.42h-13.57V192H512.43z"/>
	</g>
	<g>
		<path class="st0" d="M16.04,16.51v177H262.1v-177H16.04z M92.9,158.85L42.49,51.18h31.82l25.31,57.69l25.24-57.69h31.42
			l-50.21,107.67H92.9z M123.01,158.85l30.45-65.22h31.39l-32.33,65.22H123.01z M180.77,134.77l25.42-55.17l-46.1-0.01l13.25-28.4
			l46.35,0.01l15.96,28.36L180.77,134.77z"/>
	</g>
</g>
</svg>
